<svg xmlns="http://www.w3.org/2000/svg" width="130" height="100" viewBox="0 0 130 100">
  <defs>
    <style>
      .cls-1 {
        isolation: isolate;
      }

      .cls-2 {
        fill: #445aa8;
      }

      .cls-2, .cls-3, .cls-4, .cls-6 {
        mix-blend-mode: multiply;
      }

      .cls-3, .cls-5 {
        fill: #ffc92a;
      }

      .cls-4 {
        fill: #6ccff6;
      }

      .cls-6 {
        fill: #ff6e00;
      }
    </style>
  </defs>
  <title>Healthfeed_emailsubscription</title>
  <g class="cls-1">
    <g id="Layer_1" data-name="Layer 1">
      <g>
        <path class="cls-2" d="M39.52,29.28c1.21-5.81,2.94-11.59,6.09-16.62A18.61,18.61,0,0,1,51.69,6.3,20.4,20.4,0,0,1,61.27,4a19.31,19.31,0,0,1,5.32.38c5.13,1.24,9,5.79,10.72,10.77,1.57,4.43,1.77,9.2,1.88,13.9q.38,16.39-.48,32.78a1.36,1.36,0,0,1-.24.85,1.32,1.32,0,0,1-.69.33c-4.55,1.18-9.31,1.17-14,1.15-7.62,0-15.24.23-22.86-.09A4.19,4.19,0,0,1,37,60C37,52.63,37.9,37,39.52,29.28Z"/>
        <path class="cls-2" d="M19,29.28a71.12,71.12,0,0,1,3.85-16.62A17.61,17.61,0,0,1,26.67,6.3,9.35,9.35,0,0,1,32.72,4a7.87,7.87,0,0,1,3.37.38c3.25,1.24,5.67,5.79,6.78,10.77A69.12,69.12,0,0,1,44.06,29q.24,16.39-.3,32.78a2,2,0,0,1-.15.85.78.78,0,0,1-.43.33c-2.88,1.18-5.89,1.17-8.86,1.15-4.82,0-9.64.23-14.46-.09-1.55-.1-2.47-2.31-2.48-4C17.35,52.63,17.95,37,19,29.28Z"/>
        <path class="cls-3" d="M66.22,63.39s-.49,9.42-.14,10.31-.27,2.93-.05,3.82A26.09,26.09,0,0,1,66,81.81a10.61,10.61,0,0,0,0,2.24c.13,1-.13,1.82,0,2.7a15.7,15.7,0,0,1,0,2.33l-.09,6.64,20.18-1a70.55,70.55,0,0,0-.4-9.74c-.06-.59,0-.89-.07-1.81-.2-1.93.19-3.53-.24-6-.28-1.6.07-2.9-.19-4.73a25.73,25.73,0,0,1-.11-2.76c-.15-3.87-.25-6.64-.24-6.75,0-.36-.6-.6-.6-.6l-2.81-.27c-.26,0-2.39-.08-2.65-.05l-7.48,1Z"/>
        <path class="cls-2" d="M39.52,29.28c1.21-5.81,2.94-11.59,6.09-16.62A18.61,18.61,0,0,1,51.69,6.3,20.4,20.4,0,0,1,61.27,4a19.31,19.31,0,0,1,5.32.38c5.13,1.24,9,5.79,10.72,10.77C78,17,76.76,13.8,68.55,13.6,61.2,13.41,62,23.65,62,32.89a240.24,240.24,0,0,1-2.05,31.4c-7.62,0-11.39.08-19-.24A4.19,4.19,0,0,1,37,60C37,52.63,37.9,37,39.52,29.28Z"/>
        <path class="cls-4" d="M61.27,4l31,.58s9.76-.3,15.55,6.86c1.22,1.51,2.56,6.34,3.6,12.36a17.89,17.89,0,0,0,.45,2.83c.65,1.92.09,2.74.53,4,.81,2.42,0,4.42.59,6.52.82,3-.47,4.85.21,7,.44,1.37,0,1.93-.08,2.84-.22,4.41-.91,8.06-2.23,10,0,0,0,2.47-4.68,3.45-1.69.36-5.94.22-10.49,1.19-2.12.45-2.45-.14-4.14.34a38.4,38.4,0,0,1-13.82,1s.1-3.77.35-11.41.49-14.05-.74-22.19-1.79-10.62-3.81-15.92c-1.64-4.3-3.92-6.33-7.34-8.35A11.71,11.71,0,0,0,61.27,4Z"/>
        <path class="cls-5" d="M73.12,23.06c-1.73,0-4.31-1.08-7.7-.83-2.54.18-5.59-.44-8.66-.15-1.21.12-1.94-.43-2.87-.18s-1.79-.43-2.63-.16c-1.1.36-1.23-.19-1.83-.11-1.43.2-1.59-.17-3-.17-5.37,0-10.28-.55-13.48-.69-2.35-.1-3.81,2.32-3.87,4.6-.08,3.18,1,7.32-.37,12.18-.54,1.89.29,2.41-.14,4.27-.31,1.35.3,2-.14,4.13-1.08,5.17,0,10.31-.1,13.85-.11,3.09,1.77,4.75,5.39,4.32,3.15-.38,6.89-.15,11.78-1.41,1.37-.35,2.38.38,4.3-.52,1-.45,1.59.1,3.2-.38a42.91,42.91,0,0,1,8.77-1.52c3.43-.29,6.07.33,9.13-.62.64-.2,1.19,0,1.85-.22,2.31-.68,3.42-.25,4.28-.5,1.85-.55,1.81-2.76,1.81-2.76s-.78-4.29-1.05-6.62,0-4.7-.37-5.89-.14-3.25-.48-4.22,0-2.89-.52-4.53-1.06-9.28-1.06-9.28S75.45,23.13,73.12,23.06Z"/>
        <path class="cls-6" d="M73.12,23.06c-1.73,0-4.31-1.08-7.7-.83-2.54.18-5.59-.44-8.66-.15-1.21.12-1.94-.43-2.87-.18s-1.79-.43-2.63-.16c-1.1.36-1.23-.19-1.83-.11-1.43.2-1.59-.17-3-.17-5.37,0-10.28-.55-13.48-.69-2.35-.1-3.81,2.32-3.87,4.6C29,28.55,57,46.74,59.8,46.5c3.43-.29,15.61-20.87,15.61-20.87S75.45,23.13,73.12,23.06Z"/>
        <path class="cls-3" d="M73.12,23.06c-1.73,0-4.31-1.08-7.7-.83,3.77,5.63,10.8,37,11.66,36.71,1.85-.55,1.81-2.76,1.81-2.76s-.78-4.29-1.05-6.62,0-4.7-.37-5.89-.14-3.25-.48-4.22,0-2.89-.52-4.53-1.06-9.28-1.06-9.28S75.45,23.13,73.12,23.06Z"/>
        <path class="cls-2" d="M19,29.28a71.12,71.12,0,0,1,3.85-16.62A17.61,17.61,0,0,1,26.67,6.3,9.35,9.35,0,0,1,32.72,4a7.87,7.87,0,0,1,3.37.38C18.94,6.06,21.18,37.72,19.86,64c-1.55-.1-2.47-2.31-2.48-4C17.35,52.63,17.95,37,19,29.28Z"/>
        <path class="cls-2" d="M111.51,91.5a382.61,382.61,0,0,1-59.19,2.07c-1,0-1,1.44,0,1.48A382.61,382.61,0,0,0,111.51,93C112.45,92.88,112.46,91.4,111.51,91.5Z"/>
      </g>
    </g>
  </g>
</svg>
